<?xml version="1.0" encoding="iso-8859-1"?>
<!-- Generator: Adobe Illustrator 24.1.2, SVG Export Plug-In . SVG Version: 6.00 Build 0)  -->
<svg version="1.0" id="Layer_1" xmlns="http://www.w3.org/2000/svg" xmlns:xlink="http://www.w3.org/1999/xlink" x="0px" y="0px"
	 width="227px" height="68px" viewBox="0 0 227 68" enable-background="new 0 0 227 68" xml:space="preserve">
<path fill="none" stroke="#663399" stroke-width="5" stroke-miterlimit="10" d="M224.51,2.57l-0.03,62.99L2.47,65.46L2.5,2.47
	L71.97,2.5l0.48,0.11c13.41,3.58,26.83,7.16,40.24,10.73c14.14-3.6,28.27-7.2,42.41-10.81C178.23,2.55,201.37,2.56,224.51,2.57z"/>
<g>
	<rect x="13.62" y="17.77" fill="none" width="193.02" height="40.68"/>
	<path fill="#663399" d="M22.37,33.25c-2.18,0-3.91-0.66-5.2-1.98s-1.92-3.17-1.92-5.56c0-2.3,0.64-4.14,1.93-5.51
		s3.02-2.06,5.2-2.06c0.58,0,1.1,0.03,1.56,0.1s0.9,0.16,1.33,0.27c0.33,0.1,0.69,0.23,1.08,0.4s0.71,0.32,0.95,0.44v3.47h-0.37
		c-0.18-0.16-0.4-0.34-0.66-0.56s-0.57-0.43-0.91-0.64s-0.71-0.39-1.12-0.53s-0.83-0.22-1.27-0.22c-0.53,0-1.01,0.08-1.45,0.25
		s-0.86,0.45-1.25,0.86c-0.36,0.37-0.66,0.87-0.89,1.5s-0.35,1.38-0.35,2.24c0,0.9,0.12,1.67,0.36,2.28s0.56,1.11,0.95,1.49
		c0.38,0.36,0.8,0.63,1.26,0.79s0.93,0.24,1.39,0.24c0.48,0,0.94-0.08,1.38-0.24s0.8-0.34,1.1-0.53c0.33-0.2,0.61-0.41,0.86-0.62
		s0.46-0.39,0.64-0.56h0.33V32c-0.27,0.12-0.58,0.27-0.93,0.42s-0.71,0.29-1.08,0.41c-0.46,0.14-0.88,0.24-1.28,0.31
		S23.07,33.25,22.37,33.25z"/>
	<path fill="#663399" d="M32.25,32.97V21.2h-4.3v-2.77H40.2v2.77h-4.3v11.77H32.25z"/>
	<path fill="#663399" d="M47.97,33.25c-2.18,0-3.91-0.66-5.2-1.98s-1.92-3.17-1.92-5.56c0-2.3,0.64-4.14,1.93-5.51
		s3.02-2.06,5.2-2.06c0.58,0,1.1,0.03,1.56,0.1s0.9,0.16,1.33,0.27c0.33,0.1,0.69,0.23,1.08,0.4s0.71,0.32,0.95,0.44v3.47h-0.37
		c-0.18-0.16-0.4-0.34-0.66-0.56s-0.57-0.43-0.91-0.64s-0.71-0.39-1.12-0.53s-0.83-0.22-1.27-0.22c-0.53,0-1.01,0.08-1.45,0.25
		s-0.86,0.45-1.25,0.86c-0.36,0.37-0.66,0.87-0.89,1.5s-0.35,1.38-0.35,2.24c0,0.9,0.12,1.67,0.36,2.28s0.56,1.11,0.95,1.49
		c0.38,0.36,0.8,0.63,1.26,0.79s0.93,0.24,1.39,0.24c0.48,0,0.94-0.08,1.38-0.24s0.8-0.34,1.1-0.53c0.33-0.2,0.61-0.41,0.86-0.62
		s0.46-0.39,0.64-0.56h0.33V32c-0.27,0.12-0.58,0.27-0.93,0.42s-0.71,0.29-1.08,0.41c-0.46,0.14-0.88,0.24-1.28,0.31
		S48.67,33.25,47.97,33.25z"/>
	<path fill="#663399" d="M66.24,23.01c0,0.68-0.11,1.32-0.32,1.93s-0.52,1.12-0.93,1.53c-0.25,0.25-0.52,0.49-0.82,0.7
		s-0.62,0.4-0.98,0.55s-0.75,0.27-1.17,0.35s-0.89,0.13-1.41,0.13H58.7v4.76h-3.65V18.42h5.64c0.84,0,1.56,0.08,2.17,0.23
		s1.16,0.4,1.66,0.73c0.55,0.36,0.97,0.85,1.27,1.46S66.24,22.17,66.24,23.01z M62.49,23.1c0-0.41-0.1-0.76-0.29-1.06
		s-0.43-0.5-0.7-0.61c-0.35-0.15-0.68-0.24-0.99-0.26s-0.74-0.03-1.28-0.03H58.7v4.36h0.25c0.35,0,0.67,0,0.98-0.01
		s0.57-0.03,0.8-0.07c0.2-0.03,0.4-0.1,0.62-0.19s0.39-0.2,0.5-0.32c0.25-0.24,0.42-0.49,0.5-0.75S62.49,23.55,62.49,23.1z"/>
	<path fill="#663399" d="M88.91,32.97h-3.63v-9.64l-2.65,6.22h-2.49l-2.65-6.22v9.64h-3.44V18.42h4.21l3.22,7.18l3.21-7.18h4.21
		V32.97z"/>
	<path fill="#663399" d="M97.79,33.27c-1.95,0-3.46-0.47-4.51-1.42s-1.58-2.32-1.58-4.14v-9.29h3.65v9.07
		c0,1.01,0.19,1.76,0.57,2.26s1,0.74,1.86,0.74c0.84,0,1.46-0.24,1.85-0.71s0.59-1.24,0.59-2.29v-9.07h3.65v9.28
		c0,1.79-0.51,3.17-1.54,4.13S99.81,33.27,97.79,33.27z"/>
	<path fill="#663399" d="M105.13,32.97l4.91-14.54h3.98l4.91,14.54h-3.76L114.27,30h-4.57l-0.91,2.97H105.13z M113.47,27.36
		l-1.48-4.79l-1.48,4.79H113.47z"/>
	<path fill="#663399" d="M137.87,28.51c0,0.72-0.14,1.36-0.41,1.9s-0.64,1-1.1,1.36c-0.55,0.43-1.15,0.74-1.8,0.92
		s-1.49,0.27-2.5,0.27h-5.82V18.42h5.14c1.07,0,1.88,0.04,2.43,0.12s1.07,0.25,1.55,0.51c0.52,0.28,0.91,0.65,1.17,1.12
		s0.39,1.01,0.39,1.62c0,0.71-0.18,1.34-0.53,1.89s-0.84,0.96-1.47,1.22V25c0.9,0.19,1.62,0.57,2.16,1.16S137.87,27.52,137.87,28.51
		z M133.19,22.54c0-0.23-0.06-0.48-0.18-0.72s-0.31-0.43-0.56-0.54c-0.24-0.1-0.53-0.16-0.85-0.17s-0.82-0.01-1.47-0.01h-0.25v3.08
		h0.46c0.63,0,1.06-0.01,1.31-0.02s0.51-0.08,0.78-0.21c0.29-0.14,0.5-0.33,0.61-0.57S133.19,22.85,133.19,22.54z M134.11,28.44
		c0-0.45-0.09-0.8-0.27-1.05s-0.46-0.45-0.82-0.58c-0.22-0.08-0.53-0.13-0.91-0.14s-0.91-0.01-1.56-0.01h-0.67v3.64h0.2
		c0.95,0,1.61-0.01,1.97-0.02s0.74-0.1,1.11-0.26c0.33-0.14,0.57-0.35,0.73-0.63S134.11,28.8,134.11,28.44z"/>
	<path fill="#663399" d="M138.4,32.97l4.91-14.54h3.98l4.91,14.54h-3.76L147.54,30h-4.57l-0.91,2.97H138.4z M148.33,12.96
		l-2.93,3.84h-2.32l2.02-3.84H148.33z M146.74,27.36l-1.48-4.79l-1.48,4.79H146.74z"/>
	<path fill="#663399" d="M166.11,32.97h-3.52l-5.61-10.14v10.14h-3.34V18.42h4.48l4.64,8.33v-8.33h3.34V32.97z"/>
	<path fill="#663399" d="M187.38,32.97h-3.52l-5.61-10.14v10.14h-3.34V18.42h4.48l4.64,8.33v-8.33h3.34V32.97z"/>
	<path fill="#663399" d="M203.58,25.7c0,2.35-0.63,4.2-1.88,5.55s-2.98,2.02-5.17,2.02c-2.19,0-3.92-0.68-5.17-2.05
		s-1.88-3.2-1.88-5.52c0-2.34,0.63-4.18,1.88-5.54s2.97-2.04,5.17-2.04c1.38,0,2.57,0.27,3.56,0.8s1.79,1.29,2.37,2.26h0.42
		c0.53,0,0.91-0.13,1.13-0.4s0.33-0.63,0.33-1.09c0-0.26-0.04-0.52-0.12-0.77s-0.15-0.46-0.22-0.62v-0.19h1.95
		c0.07,0.22,0.12,0.53,0.17,0.93s0.07,0.72,0.07,0.95c0,1-0.28,1.74-0.83,2.22s-1.27,0.73-2.14,0.75c0.12,0.41,0.21,0.84,0.26,1.3
		S203.58,25.21,203.58,25.7z M199.81,25.69c0-0.87-0.09-1.6-0.27-2.21s-0.42-1.11-0.72-1.5c-0.31-0.4-0.67-0.68-1.06-0.85
		s-0.8-0.26-1.23-0.26c-0.45,0-0.86,0.08-1.22,0.24s-0.72,0.44-1.05,0.85c-0.3,0.38-0.54,0.88-0.73,1.5s-0.28,1.37-0.28,2.24
		c0,0.89,0.09,1.63,0.26,2.22s0.42,1.08,0.72,1.48c0.31,0.4,0.67,0.69,1.06,0.86s0.81,0.26,1.23,0.26c0.43,0,0.85-0.09,1.25-0.28
		s0.75-0.47,1.04-0.86c0.31-0.42,0.55-0.92,0.72-1.48S199.81,26.6,199.81,25.69z M198.26,37.1h-3.52v-2.67h3.52V37.1z"/>
	<path fill="#663399" d="M52.68,56.97V45.2h-4.3v-2.77h12.25v2.77h-4.3v11.77H52.68z"/>
	<path fill="#663399" d="M74.4,56.97h-3.65v-6.45h-4.97v6.45h-3.65V42.42h3.65v5.32h4.97v-5.32h3.65V56.97z"/>
	<path fill="#663399" d="M77.41,56.97V42.42h9.83v2.77h-6.2v2.55h5.71v2.77h-5.71v3.67h6.2v2.77H77.41z M86.49,40.79h-2.53
		l-1.61-2.08l-1.6,2.08h-2.49l2.94-3.84h2.35L86.49,40.79z M89.98,36.96l-2.03,2.6H86.3l1.21-2.6H89.98z"/>
	<path fill="#663399" d="M107.85,56.97h-3.65v-6.45h-4.97v6.45h-3.65V42.42h3.65v5.32h4.97v-5.32h3.65V56.97z"/>
	<path fill="#663399" d="M110.86,56.97V42.42h9.83v2.77h-6.2v2.55h5.71v2.77h-5.71v3.67h6.2v2.77H110.86z M119.94,40.79h-2.53
		l-1.61-2.08l-1.6,2.08h-2.49l2.94-3.84H117L119.94,40.79z M117.56,61.1h-3.52v-2.67h3.52V61.1z"/>
	<path fill="#663399" d="M143.88,56.97h-3.63v-9.64l-2.65,6.22h-2.49l-2.65-6.22v9.64h-3.44V42.42h4.21l3.22,7.18l3.21-7.18h4.21
		V56.97z"/>
	<path fill="#663399" d="M160.13,49.7c0,2.35-0.63,4.2-1.88,5.55s-2.98,2.02-5.17,2.02c-2.19,0-3.92-0.68-5.17-2.05
		s-1.88-3.21-1.88-5.52c0-2.34,0.63-4.18,1.88-5.54s2.97-2.04,5.17-2.04c1.38,0,2.57,0.27,3.56,0.8s1.79,1.29,2.37,2.26h0.42
		c0.53,0,0.91-0.13,1.13-0.4s0.33-0.63,0.33-1.09c0-0.26-0.04-0.52-0.12-0.77s-0.15-0.46-0.22-0.62v-0.19h1.95
		c0.07,0.22,0.12,0.53,0.17,0.93s0.07,0.72,0.07,0.95c0,1-0.28,1.74-0.83,2.22s-1.27,0.73-2.14,0.75c0.12,0.41,0.21,0.84,0.26,1.3
		S160.13,49.21,160.13,49.7z M156.36,49.69c0-0.87-0.09-1.6-0.27-2.21s-0.42-1.11-0.72-1.5c-0.31-0.4-0.67-0.68-1.06-0.85
		s-0.8-0.26-1.23-0.26c-0.45,0-0.86,0.08-1.22,0.24s-0.72,0.44-1.05,0.85c-0.3,0.38-0.54,0.88-0.73,1.5s-0.28,1.37-0.28,2.24
		c0,0.89,0.09,1.63,0.26,2.22s0.42,1.08,0.72,1.48c0.31,0.4,0.67,0.69,1.06,0.86s0.81,0.26,1.23,0.26c0.43,0,0.85-0.09,1.25-0.28
		s0.75-0.47,1.04-0.86c0.31-0.42,0.55-0.92,0.72-1.48S156.36,50.6,156.36,49.69z M156.08,36.96l-2.93,3.84h-2.32l2.02-3.84H156.08z"
		/>
	<path fill="#663399" d="M170.96,56.97h-7.83v-2.54h2.09v-9.46h-2.09v-2.54h7.83v2.54h-2.09v9.46h2.09V56.97z"/>
</g>
<g>
</g>
<g>
</g>
<g>
</g>
<g>
</g>
<g>
</g>
</svg>
